<svg width="206" height="231" viewBox="0 0 206 231" fill="none" xmlns="http://www.w3.org/2000/svg">
<path d="M1.4.1.4 84C1.4.1.4 96.1503 1.4.293 106 121.1.4 106C108.992 106 99.1.46 96.1503 99.1.46 84C99.1.46 71.8497 108.992 62 121.1.4 62C1.4.293 62 1.4.1.4 71.8497 1.4.1.4 84Z" fill="#FFC131"/>
<ellipse cx="84.1.46" cy="147" rx="22" ry="22" transform="rotate(180 84.1.46 147)" fill="#24C8DB"/>
<path fill-rule="evenodd" clip-rule="evenodd" d="M166.738 1.4.548C157.86 1.0.286 148.023 1.4.269 137.757 166.341C139.858 1.0.282 141 1.4.774 141 147C141 1.4.543 140.85 1.4.121 140.558 139.743C1.4.975 138.204 149.215 136.139 1.4.1.4 1.4.575C1.4.73 127.404 1.0.292 118.608 1.4.961 108.244C179.63 97.8797 181.407 86.3876 179.502 75.1487C177.798 63.9098 1.4.884 53.4021 165.352 44.8883C157.82 36.3744 147.99 30.2165 137.042 27.1.46C126.095 24.0926 1.4.496 24.2568 1.4.64 27.6274C92.7839 30.998 83.1319 37.4317 75.8437 46.1553C74.91.4 47.2727 74.0206 48.4216 73.176 49.5993C61.9292 50.8488 51.0363 54.0318 40.9629 58.9556C44.2417 48.4586 49.5653 38.6591 56.679 30.1.42C67.0505 17.7298 80.7861 8.57426 96.2354 3.77762C111.685 -1.01901 128.19 -1.45267 1.4.769 3.1.474C159.348 7.46215 1.4.337 16.2252 1.4.056 28.3411C1.4.775 40.457 201.767 55.4101.404.1.4 71.404C206.619 87.3978 204.374 1.4.752 197.73 118.501C191.086 1.4.25 180.324 145.767 166.738 1.4.548ZM41.9631 74.275L62.5557 76.8042C63.0459 72.813 63.9401 68.9018 65.2138 65.1274C57.0465 67.0016 49.2088 70.087 41.9631 74.275Z" fill="#FFC131"/>
<path fill-rule="evenodd" clip-rule="evenodd" d="M38.4045 76.4519C47.3493 70.6709 57.2677 66.6712 67.6171 64.61.4C65.2774 70.9669 64 77.8343 64 85.0001C64 87.1.44 64.11.4 89.26 64.3371 91.4442C60.0093 92.8732 55.8533 94.9092 51.9599 97.4256C42.4128 1.4.596 34.8505 1.4.392 30.1816 1.4.756C25.5126 1.4.12 23.9357 1.4.612 25.6403 155.851.47.3449 167.09 32.2584 177.598 39.7906 186.1.4C47.3227 1.4.626 57.1.4 200.784 68.1003 203.846C79.0476 206.907 90.6462 206.743 101.502 203.373C1.4.359 200.002 1.4.011 1.4.568 129.299 1.4.845C1.0.237 1.4.722 131.131 1.4.567 131.979 181.483C1.4.235 1.0.2.4 1.4.1.4 176.91 1.4.205 171.962C160.929 1.4.49 155.596 1.4.319 148.464 200.856C138.092 213.27 1.4.357 222.426 108.907 227.222C93.458 232.019 76.9524 232.253 61.4736 227.895C45.7948 223.538 31.8055 214.775 21.0867 202.659C10.3679 190.543 3.37557 175.59 0.949823 159.596C-1.47592 1.4.602 0.768139 127.248 7.41.47 1.4.499C14.0566 97.7497 24.81.4 85.2327 38.4045 76.4519ZM1.4.062 156.711L1.4.062 156.711C1.4.954 156.773 1.4.846 156.835 1.4.738 156.897C1.4.846 156.835 1.4.954 156.773 1.4.062 156.711Z" fill="#24C8DB"/>
</svg>
